<mxfile host="Electron" agent="Mozilla/5.0 (Windows NT 10.0; Win64; x64) AppleWebKit/537.36 (KHTML, like Gecko) draw.io/28.0.6 Chrome/138.0.7204.100 Electron/37.2.3 Safari/537.36" version="28.0.6">
  <diagram name="Page-1" id="TU8D8aRLRAj_NkM0Lcz2">
    <mxGraphModel dx="1426" dy="841" grid="1" gridSize="10" guides="1" tooltips="1" connect="1" arrows="1" fold="1" page="1" pageScale="1" pageWidth="827" pageHeight="1169" math="0" shadow="0">
      <root>
        <mxCell id="0" />
        <mxCell id="1" parent="0" />
        <mxCell id="rrJjo7IS_h2o0s_EbZ26-24" value="" style="rounded=0;whiteSpace=wrap;html=1;strokeColor=none;" vertex="1" parent="1">
          <mxGeometry x="30" width="850" height="420" as="geometry" />
        </mxCell>
        <mxCell id="rrJjo7IS_h2o0s_EbZ26-1" value="Main Scene" style="shape=umlFrame;whiteSpace=wrap;html=1;pointerEvents=0;fontStyle=1;fontSize=13;" vertex="1" parent="1">
          <mxGeometry x="160" y="10" width="480" height="400" as="geometry" />
        </mxCell>
        <mxCell id="rrJjo7IS_h2o0s_EbZ26-2" value="AR Foundation" style="html=1;dropTarget=0;whiteSpace=wrap;fontSize=18;fillColor=#fff2cc;strokeColor=#d6b656;" vertex="1" parent="1">
          <mxGeometry x="690" y="147.5" width="180" height="60" as="geometry" />
        </mxCell>
        <mxCell id="rrJjo7IS_h2o0s_EbZ26-3" value="" style="shape=module;jettyWidth=8;jettyHeight=4;" vertex="1" parent="rrJjo7IS_h2o0s_EbZ26-2">
          <mxGeometry x="1" width="20" height="20" relative="1" as="geometry">
            <mxPoint x="-27" y="7" as="offset" />
          </mxGeometry>
        </mxCell>
        <mxCell id="rrJjo7IS_h2o0s_EbZ26-4" value="Shared AR" style="html=1;dropTarget=0;whiteSpace=wrap;fontSize=18;fillColor=#fff2cc;strokeColor=#d6b656;" vertex="1" parent="1">
          <mxGeometry x="690" y="265" width="180" height="60" as="geometry" />
        </mxCell>
        <mxCell id="rrJjo7IS_h2o0s_EbZ26-5" value="" style="shape=module;jettyWidth=8;jettyHeight=4;" vertex="1" parent="rrJjo7IS_h2o0s_EbZ26-4">
          <mxGeometry x="1" width="20" height="20" relative="1" as="geometry">
            <mxPoint x="-27" y="7" as="offset" />
          </mxGeometry>
        </mxCell>
        <mxCell id="rrJjo7IS_h2o0s_EbZ26-10" style="edgeStyle=orthogonalEdgeStyle;rounded=0;orthogonalLoop=1;jettySize=auto;html=1;exitX=0.5;exitY=0;exitDx=0;exitDy=0;entryX=0.5;entryY=1;entryDx=0;entryDy=0;" edge="1" parent="1" source="rrJjo7IS_h2o0s_EbZ26-6" target="rrJjo7IS_h2o0s_EbZ26-9">
          <mxGeometry relative="1" as="geometry" />
        </mxCell>
        <mxCell id="rrJjo7IS_h2o0s_EbZ26-13" style="edgeStyle=orthogonalEdgeStyle;rounded=0;orthogonalLoop=1;jettySize=auto;html=1;exitX=1;exitY=0.5;exitDx=0;exitDy=0;entryX=0;entryY=0.5;entryDx=0;entryDy=0;" edge="1" parent="1" source="rrJjo7IS_h2o0s_EbZ26-6" target="rrJjo7IS_h2o0s_EbZ26-12">
          <mxGeometry relative="1" as="geometry" />
        </mxCell>
        <mxCell id="rrJjo7IS_h2o0s_EbZ26-16" style="edgeStyle=orthogonalEdgeStyle;rounded=0;orthogonalLoop=1;jettySize=auto;html=1;exitX=1;exitY=0.5;exitDx=0;exitDy=0;entryX=0;entryY=0.5;entryDx=0;entryDy=0;" edge="1" parent="1" source="rrJjo7IS_h2o0s_EbZ26-6" target="rrJjo7IS_h2o0s_EbZ26-15">
          <mxGeometry relative="1" as="geometry" />
        </mxCell>
        <mxCell id="rrJjo7IS_h2o0s_EbZ26-21" style="edgeStyle=orthogonalEdgeStyle;rounded=0;orthogonalLoop=1;jettySize=auto;html=1;exitX=0.5;exitY=1;exitDx=0;exitDy=0;entryX=0.5;entryY=0;entryDx=0;entryDy=0;" edge="1" parent="1" source="rrJjo7IS_h2o0s_EbZ26-6" target="rrJjo7IS_h2o0s_EbZ26-20">
          <mxGeometry relative="1" as="geometry" />
        </mxCell>
        <mxCell id="rrJjo7IS_h2o0s_EbZ26-6" value="User Anchor" style="html=1;whiteSpace=wrap;verticalAlign=top;fontSize=18;fillColor=#d5e8d4;strokeColor=#82b366;fontStyle=1" vertex="1" parent="1">
          <mxGeometry x="200" y="180" width="180" height="120" as="geometry" />
        </mxCell>
        <mxCell id="rrJjo7IS_h2o0s_EbZ26-7" value="Session Manager" style="label;fontStyle=0;strokeColor=none;fillColor=none;align=left;verticalAlign=top;overflow=hidden;spacingLeft=28;spacingRight=4;rotatable=0;points=[[0,0.5],[1,0.5]];portConstraint=eastwest;imageWidth=16;imageHeight=16;whiteSpace=wrap;html=1;image=img/clipart/Gear_128x128.png;fontSize=16;" vertex="1" parent="1">
          <mxGeometry x="200" y="220" width="160" height="30" as="geometry" />
        </mxCell>
        <mxCell id="rrJjo7IS_h2o0s_EbZ26-8" value="Network Behaviour" style="label;fontStyle=0;strokeColor=none;fillColor=none;align=left;verticalAlign=top;overflow=hidden;spacingLeft=28;spacingRight=4;rotatable=0;points=[[0,0.5],[1,0.5]];portConstraint=eastwest;imageWidth=16;imageHeight=16;whiteSpace=wrap;html=1;image=img/clipart/Gear_128x128.png;fontSize=16;" vertex="1" parent="1">
          <mxGeometry x="200" y="250" width="170" height="30" as="geometry" />
        </mxCell>
        <mxCell id="rrJjo7IS_h2o0s_EbZ26-9" value="UI Manager" style="html=1;whiteSpace=wrap;fontSize=18;fillColor=#d5e8d4;strokeColor=#82b366;fontStyle=1" vertex="1" parent="1">
          <mxGeometry x="200" y="90" width="180" height="50" as="geometry" />
        </mxCell>
        <mxCell id="rrJjo7IS_h2o0s_EbZ26-14" style="edgeStyle=orthogonalEdgeStyle;rounded=0;orthogonalLoop=1;jettySize=auto;html=1;exitX=1;exitY=0.5;exitDx=0;exitDy=0;entryX=0;entryY=0.5;entryDx=0;entryDy=0;" edge="1" parent="1" source="rrJjo7IS_h2o0s_EbZ26-11" target="rrJjo7IS_h2o0s_EbZ26-2">
          <mxGeometry relative="1" as="geometry" />
        </mxCell>
        <mxCell id="rrJjo7IS_h2o0s_EbZ26-19" style="edgeStyle=orthogonalEdgeStyle;rounded=0;orthogonalLoop=1;jettySize=auto;html=1;exitX=0.5;exitY=0;exitDx=0;exitDy=0;entryX=0.5;entryY=1;entryDx=0;entryDy=0;" edge="1" parent="1" source="rrJjo7IS_h2o0s_EbZ26-11" target="rrJjo7IS_h2o0s_EbZ26-18">
          <mxGeometry relative="1" as="geometry" />
        </mxCell>
        <mxCell id="rrJjo7IS_h2o0s_EbZ26-11" value="AR Session" style="html=1;whiteSpace=wrap;verticalAlign=top;fontSize=18;fillColor=#d5e8d4;strokeColor=#82b366;fontStyle=1" vertex="1" parent="1">
          <mxGeometry x="440" y="135" width="170" height="85" as="geometry" />
        </mxCell>
        <mxCell id="rrJjo7IS_h2o0s_EbZ26-12" value="Tracking Manager" style="label;fontStyle=0;strokeColor=none;fillColor=none;align=left;verticalAlign=top;overflow=hidden;spacingLeft=28;spacingRight=4;rotatable=0;points=[[0,0.5],[1,0.5]];portConstraint=eastwest;imageWidth=16;imageHeight=16;whiteSpace=wrap;html=1;image=img/clipart/Gear_128x128.png;fontSize=16;" vertex="1" parent="1">
          <mxGeometry x="440" y="170" width="170" height="30" as="geometry" />
        </mxCell>
        <mxCell id="rrJjo7IS_h2o0s_EbZ26-17" style="edgeStyle=orthogonalEdgeStyle;rounded=0;orthogonalLoop=1;jettySize=auto;html=1;exitX=1;exitY=0.5;exitDx=0;exitDy=0;entryX=0;entryY=0.5;entryDx=0;entryDy=0;" edge="1" parent="1" source="rrJjo7IS_h2o0s_EbZ26-15" target="rrJjo7IS_h2o0s_EbZ26-4">
          <mxGeometry relative="1" as="geometry" />
        </mxCell>
        <mxCell id="rrJjo7IS_h2o0s_EbZ26-15" value="Network Manager" style="html=1;whiteSpace=wrap;fontSize=18;fillColor=#d5e8d4;strokeColor=#82b366;fontStyle=1" vertex="1" parent="1">
          <mxGeometry x="440" y="270" width="170" height="50" as="geometry" />
        </mxCell>
        <mxCell id="rrJjo7IS_h2o0s_EbZ26-18" value="Tracked&lt;div&gt;Objects&lt;/div&gt;" style="ellipse;whiteSpace=wrap;html=1;aspect=fixed;fontSize=18;" vertex="1" parent="1">
          <mxGeometry x="485" y="20" width="80" height="80" as="geometry" />
        </mxCell>
        <mxCell id="rrJjo7IS_h2o0s_EbZ26-23" style="edgeStyle=orthogonalEdgeStyle;rounded=0;orthogonalLoop=1;jettySize=auto;html=1;exitX=0;exitY=0.5;exitDx=0;exitDy=0;entryX=1;entryY=0.5;entryDx=0;entryDy=0;" edge="1" parent="1" source="rrJjo7IS_h2o0s_EbZ26-20" target="rrJjo7IS_h2o0s_EbZ26-22">
          <mxGeometry relative="1" as="geometry" />
        </mxCell>
        <mxCell id="rrJjo7IS_h2o0s_EbZ26-20" value="Profile Configuration" style="html=1;whiteSpace=wrap;fontSize=18;fillColor=#d5e8d4;strokeColor=#82b366;fontStyle=1" vertex="1" parent="1">
          <mxGeometry x="200" y="340" width="180" height="50" as="geometry" />
        </mxCell>
        <mxCell id="rrJjo7IS_h2o0s_EbZ26-22" value="User Profile" style="ellipse;whiteSpace=wrap;html=1;aspect=fixed;fontSize=18;" vertex="1" parent="1">
          <mxGeometry x="40" y="325" width="80" height="80" as="geometry" />
        </mxCell>
      </root>
    </mxGraphModel>
  </diagram>
</mxfile>
